<?xml version="1.0" encoding="utf-8"?>
<svg viewBox="25.029 178.613 448.357 122.411" width="448.357" height="122.411" xmlns="http://www.w3.org/2000/svg">
  <path d="M 25.029 283.887 L 60.703 196.1 L 26.778 196.1 L 26.778 178.613 L 81.338 178.613 L 81.338 195.751 L 45.664 283.537 L 81.338 283.537 L 81.338 301.024 L 25.029 301.024 L 25.029 283.887 Z" style="fill: rgb(229, 9, 20); white-space: pre;"/>
  <path d="M 428.444 238.42 L 407.284 178.613 L 427.57 178.613 L 440.51 218.134 L 440.86 218.134 L 454.15 178.613 L 472.337 178.613 L 451.178 238.42 L 473.386 301.024 L 453.101 301.024 L 439.111 258.355 L 438.762 258.355 L 424.422 301.024 L 406.235 301.024 L 428.444 238.42 Z" style="fill: rgb(229, 9, 20); white-space: pre;"/>
  <path d="M 371.491 178.613 L 390.727 178.613 L 390.727 301.024 L 371.491 301.024 L 371.491 178.613 Z" style="fill: rgb(229, 9, 20); white-space: pre;"/>
  <path d="M 304.928 178.613 L 324.164 178.613 L 324.164 283.537 L 355.816 283.537 L 355.816 301.024 L 304.928 301.024 L 304.928 178.613 Z" style="fill: rgb(229, 9, 20); white-space: pre;"/>
  <path d="M 238.366 178.613 L 289.254 178.613 L 289.254 196.1 L 257.602 196.1 L 257.602 230.201 L 282.434 230.201 L 282.434 247.688 L 257.602 247.688 L 257.602 301.024 L 238.366 301.024 L 238.366 178.613 Z" style="fill: rgb(229, 9, 20); white-space: pre;"/>
  <path d="M 168.46 178.613 L 220.922 178.613 L 220.922 196.1 L 187.696 196.1 L 187.696 228.452 L 214.102 228.452 L 214.102 245.939 L 187.696 245.939 L 187.696 283.537 L 220.922 283.537 L 220.922 301.024 L 168.46 301.024 L 168.46 178.613 Z" style="fill: rgb(229, 9, 20); white-space: pre;"/>
  <path d="M 98.581 178.613 L 151.043 178.613 L 151.043 196.1 L 117.817 196.1 L 117.817 228.452 L 144.223 228.452 L 144.223 245.939 L 117.817 245.939 L 117.817 283.537 L 151.043 283.537 L 151.043 301.024 L 98.581 301.024 L 98.581 178.613 Z" style="fill: rgb(229, 9, 20); white-space: pre;"/>
</svg>